<svg height="266.667" width="933.333"><defs><clipPath id="prefix__a" clipPathUnits="userSpaceOnUse"><path d="M0 200h700V0H0z"/></clipPath></defs><g clip-path="url(#prefix__a)" transform="matrix(1.33333 0 0 -1.33333 0 266.667)"><path d="M161.005 112.94h-51.666c-1.333 0-2.414-1.168-2.414-2.61V83.02c0-1.44 1.08-2.613 2.414-2.613h20.155v-33.93s-4.526-1.667-17.036-1.667c-14.762 0-35.382 5.83-35.382 54.853 0 49.032 21.47 55.484 41.63 55.484 17.449 0 24.967-3.321 29.75-4.922 1.504-.498 2.894 1.12 2.894 2.562l5.763 26.386c0 .675-.211 1.488-.922 2.039-1.943 1.498-13.794 8.667-43.733 8.667-34.492 0-69.871-15.864-69.871-92.128 0-76.266 40.506-87.63 74.64-87.63 28.263 0 45.408 13.057 45.408 13.057.707.422.783 1.489.783 1.978v85.174c0 1.442-1.08 2.61-2.413 2.61M427.266 180.741c0 1.453-1.065 2.626-2.398 2.626h-29.09c-1.33 0-2.41-1.173-2.41-2.626l.008-60.779H348.03v60.78c0 1.452-1.07 2.625-2.4 2.625h-29.09c-1.323 0-2.402-1.173-2.402-2.626V16.168c0-1.45 1.079-2.633 2.403-2.633h29.089c1.33 0 2.4 1.182 2.4 2.633v70.394h45.345l-.08-70.394c0-1.45 1.08-2.633 2.41-2.633h29.16c1.333 0 2.397 1.182 2.4 2.633zM215.9 159.146c0 11.324-8.398 20.476-18.76 20.476-10.35 0-18.755-9.152-18.755-20.476 0-11.313 8.405-20.49 18.755-20.49 10.362 0 18.76 9.177 18.76 20.49M213.82 50.884v75.968c0 1.442-1.076 2.62-2.407 2.62h-29c-1.33 0-2.52-1.482-2.52-2.924V17.708c0-3.197 1.845-4.148 4.23-4.148h26.128c2.866 0 3.569 1.52 3.569 4.2zM537.823 129.226h-28.868c-1.323 0-2.402-1.18-2.402-2.631V45.9s-7.334-5.802-17.743-5.802c-10.408 0-13.17 5.107-13.17 16.125v70.372c0 1.45-1.076 2.63-2.4 2.63H443.94c-1.323 0-2.406-1.18-2.406-2.63v-75.7c0-32.73 16.872-40.736 40.083-40.736 19.041 0 34.393 11.373 34.393 11.373s.732-5.994 1.062-6.704c.331-.708 1.192-1.425 2.124-1.425l18.64.089c1.321 0 2.404 1.18 2.404 2.628l-.009 110.475c0 1.45-1.079 2.63-2.409 2.63M605.337 40.197c-10.013.33-16.804 5.242-16.804 5.242v52.117s6.7 4.44 14.92 5.234c10.396 1.006 20.412-2.388 20.412-29.198 0-28.272-4.52-33.85-18.528-33.395m11.386 92.726c-16.396 0-27.547-7.909-27.547-7.909v55.727c0 1.453-1.074 2.626-2.401 2.626h-29.172c-1.328 0-2.405-1.173-2.405-2.626V16.168c0-1.45 1.077-2.633 2.408-2.633h20.24c.91 0 1.6.508 2.11 1.397.504.884 1.23 7.588 1.23 7.588s11.929-12.22 34.512-12.22c26.51 0 41.715 14.538 41.715 65.265 0 50.728-24.282 57.358-40.69 57.358M297.428 129.488h-21.822l-.032 31.167c0 1.18-.563 1.77-1.824 1.77h-29.737c-1.156 0-1.776-.55-1.776-1.752v-32.207s-14.903-3.89-15.911-4.204c-1.002-.315-1.741-1.315-1.741-2.508v-20.24c0-1.455 1.075-2.63 2.405-2.63h15.247v-48.69c0-36.165 23.464-39.717 39.297-39.717 7.235 0 15.889 2.512 17.318 3.082.864.343 1.367 1.311 1.367 2.36l.023 22.264c0 1.452-1.134 2.628-2.411 2.628-1.272 0-4.525-.559-7.874-.559-10.718 0-14.351 5.387-14.351 12.362l-.001 46.27h21.823c1.33 0 2.408 1.175 2.408 2.63v25.351c0 1.453-1.078 2.623-2.408 2.623" fill="#0f0d0e"/></g></svg>